<svg xmlns="http://www.w3.org/2000/svg" xmlns:xlink="http://www.w3.org/1999/xlink" width="32" height="32" fill="none"><use xlink:href="#K" fill="#ff4860"/><use xlink:href="#K" fill="url(#H)"/><use xlink:href="#K" fill="url(#A)"/><use xlink:href="#K" fill="url(#B)"/><use xlink:href="#K" fill="url(#C)"/><use xlink:href="#K" fill="url(#D)"/><use xlink:href="#K" fill="url(#E)"/><use xlink:href="#K" fill="url(#F)"/><path fill="#0a0d2d" d="M4.08 19.67c3 .66 2.8-.36 8.51-.36 3.33 0 6.03 1.89 9 2.14 2.14.19 4.75-1.05 6.35-1.65l-3.13-1.18c-3.64-1.2-3.91-1.34-9.25-1.34-5.7 0-8.58 1.43-11.48 2.4z"/><g filter="url(#J)"><use xlink:href="#L" fill="url(#I)"/><use xlink:href="#L" fill="url(#G)"/></g><defs><radialGradient id="A" cx="0" cy="0" r="1" gradientTransform="matrix(-5,3,-1,-2,24.03,19.39)" xlink:href="#M"><stop stop-color="#ff6099"/><stop offset="1" stop-color="#ff6099" stop-opacity="0"/></radialGradient><radialGradient id="B" cx="0" cy="0" r="1" gradientTransform="matrix(0,2,-5,1,17.63,10)" xlink:href="#M"><stop stop-color="#a7464a"/><stop offset="1" stop-color="#a7464a" stop-opacity="0"/></radialGradient><radialGradient id="C" cx="0" cy="0" r="1" gradientTransform="matrix(9,-9,2,2,4.44,15.78)" xlink:href="#M"><stop offset=".33" stop-color="#b34146"/><stop offset="1" stop-color="#b34146" stop-opacity="0"/></radialGradient><radialGradient id="D" cx="0" cy="0" r="1" gradientTransform="matrix(4,2,-1,1,13.5,10)" xlink:href="#M"><stop stop-color="#ee7278"/><stop offset="1" stop-color="#ee7278" stop-opacity="0"/></radialGradient><radialGradient id="E" cx="0" cy="0" r="1" gradientTransform="matrix(1,2,-6,2,11.94,19.66)" xlink:href="#M"><stop offset=".2" stop-color="#e7284f"/><stop offset="1" stop-color="#ee2b51" stop-opacity="0"/></radialGradient><radialGradient id="F" cx="0" cy="0" r="1" gradientTransform="matrix(0,2,-7,0,12.94,19.1)" xlink:href="#M"><stop offset=".36" stop-color="#ad1638"/><stop offset=".84" stop-color="#b11739" stop-opacity="0"/></radialGradient><radialGradient id="G" cx="0" cy="0" r="1" gradientTransform="matrix(0,-3,11,0,16,19.4)" xlink:href="#M"><stop offset=".54" stop-color="#835f98" stop-opacity="0"/><stop offset=".92" stop-color="#835f98"/></radialGradient><linearGradient id="H" x1="24.88" x2="8.5" y1="18.42" y2="18.55" xlink:href="#M"><stop offset=".31" stop-color="#ff58ad"/><stop offset=".71" stop-color="#ff58ad" stop-opacity="0"/></linearGradient><linearGradient id="I" x1="20.79" x2="8.03" y1="18.89" y2="18.89" xlink:href="#M"><stop offset=".32" stop-color="#f5e4ff"/><stop offset="1" stop-color="#dac6e4"/></linearGradient><filter id="J" width="16.45" height="2.77" x="7.77" y="17.05" color-interpolation-filters="sRGB" filterUnits="userSpaceOnUse"><feFlood flood-opacity="0"/><feBlend in="SourceGraphic" result="B"/><feColorMatrix in="SourceAlpha" result="C" values="0 0 0 0 0 0 0 0 0 0 0 0 0 0 0 0 0 0 127 0"/><feOffset dy="-.2"/><feGaussianBlur stdDeviation=".31"/><feComposite in2="C" k2="-1" k3="1" operator="arithmetic"/><feColorMatrix values="0 0 0 0 0.560784 0 0 0 0 0.384314 0 0 0 0 0.576471 0 0 0 1 0"/><feBlend in2="B"/></filter><path id="K" d="M16.81 11.31c-.32.1-1.25.2-1.62 0-.92-.47-2.92-1.31-4-1.31-1.9 0-3.08 1.11-4.2 2.22-.84.82-3.2 4.39-4.2 6.19-.88 1.6 0 2.45.41 2.73 3.75 2.55 10.16 5.97 14.7 5.97a14.2 14.2 0 0 0 11.24-5.8c.39-.56.78-1.89-.31-3.65-1-1.61-3.01-4.66-3.85-5.47-1.12-1.1-2.4-2.19-4.06-2.19s-2.75.9-4.1 1.31z"/><path id="L" d="M24.22 18.43c-2.31-.78-3.61-1.26-8.6-1.16-3.87.07-5.69.5-7.85 1.12.19.51.68.95 1.25 1.03 1.34.2 3.84.4 6.88.4 3.27 0 5.73-.21 7.15-.41a1.5 1.5 0 0 0 1.17-.98Z"/><linearGradient id="M" gradientUnits="userSpaceOnUse"/></defs></svg>
